<mxfile host="app.diagrams.net" modified="2023-06-03T17:08:31.875Z" agent="Mozilla/5.0 (Windows NT 10.0; Win64; x64) AppleWebKit/537.36 (KHTML, like Gecko) Chrome/114.0.0.0 Safari/537.36" etag="znG6nToUx3W9lYe3EB6_" version="21.3.7" type="device">
  <diagram name="Page-1" id="df-2c7o3fvR80B4m2EIF">
    <mxGraphModel dx="1687" dy="905" grid="1" gridSize="10" guides="1" tooltips="1" connect="1" arrows="1" fold="1" page="1" pageScale="1" pageWidth="827" pageHeight="1169" math="0" shadow="0">
      <root>
        <mxCell id="0" />
        <mxCell id="1" parent="0" />
        <mxCell id="2fdZFBAq9TxM26RNQhWu-7" value="" style="rounded=1;whiteSpace=wrap;html=1;" parent="1" vertex="1">
          <mxGeometry x="170" y="270" width="599" height="60" as="geometry" />
        </mxCell>
        <mxCell id="2fdZFBAq9TxM26RNQhWu-8" value="&lt;font style=&quot;font-size: 18px;&quot;&gt;Common Avalon bus&lt;/font&gt;" style="text;html=1;strokeColor=none;fillColor=none;align=center;verticalAlign=middle;whiteSpace=wrap;rounded=0;" parent="1" vertex="1">
          <mxGeometry x="380" y="280" width="260" height="40" as="geometry" />
        </mxCell>
        <mxCell id="2fdZFBAq9TxM26RNQhWu-49" value="" style="endArrow=classic;startArrow=classic;html=1;rounded=0;fillColor=#0050ef;strokeColor=#001DBC;" parent="1" edge="1">
          <mxGeometry width="50" height="50" relative="1" as="geometry">
            <mxPoint x="886" y="380" as="sourcePoint" />
            <mxPoint x="836" y="380" as="targetPoint" />
          </mxGeometry>
        </mxCell>
        <mxCell id="2fdZFBAq9TxM26RNQhWu-50" value="" style="endArrow=classic;startArrow=classic;html=1;rounded=0;fillColor=#fa6800;strokeColor=#C73500;" parent="1" edge="1">
          <mxGeometry width="50" height="50" relative="1" as="geometry">
            <mxPoint x="836" y="410" as="sourcePoint" />
            <mxPoint x="886" y="410" as="targetPoint" />
          </mxGeometry>
        </mxCell>
        <mxCell id="2fdZFBAq9TxM26RNQhWu-51" value="&lt;font style=&quot;font-size: 18px;&quot;&gt;Master&lt;br&gt;&lt;/font&gt;" style="text;html=1;strokeColor=none;fillColor=none;align=center;verticalAlign=middle;whiteSpace=wrap;rounded=0;" parent="1" vertex="1">
          <mxGeometry x="906" y="370" width="50" height="20" as="geometry" />
        </mxCell>
        <mxCell id="7jhj6rdcTujtURosXQOu-9" value="&lt;font style=&quot;font-size: 18px;&quot;&gt;Slave&lt;br&gt;&lt;/font&gt;" style="text;html=1;strokeColor=none;fillColor=none;align=center;verticalAlign=middle;whiteSpace=wrap;rounded=0;" parent="1" vertex="1">
          <mxGeometry x="906" y="400" width="50" height="20" as="geometry" />
        </mxCell>
        <mxCell id="CXjppGzp4tX1Kewn0kRi-1" value="" style="rounded=1;whiteSpace=wrap;html=1;fillColor=#FFFF99;" parent="1" vertex="1">
          <mxGeometry x="170" y="110" width="120" height="120" as="geometry" />
        </mxCell>
        <mxCell id="CXjppGzp4tX1Kewn0kRi-3" value="&lt;span style=&quot;font-size: 18px;&quot;&gt;Audio&lt;br&gt;subsystem&lt;br&gt;&lt;/span&gt;" style="text;html=1;strokeColor=none;fillColor=none;align=center;verticalAlign=middle;whiteSpace=wrap;rounded=0;" parent="1" vertex="1">
          <mxGeometry x="180" y="150" width="100" height="40" as="geometry" />
        </mxCell>
        <mxCell id="CXjppGzp4tX1Kewn0kRi-7" value="" style="rounded=1;whiteSpace=wrap;html=1;fillColor=#CCFFE6;strokeColor=#82b366;" parent="1" vertex="1">
          <mxGeometry x="650" y="110" width="120" height="120" as="geometry" />
        </mxCell>
        <mxCell id="CXjppGzp4tX1Kewn0kRi-9" value="&lt;span style=&quot;font-size: 18px;&quot;&gt;Signal Processing&lt;br&gt;subsystem&lt;br&gt;&lt;/span&gt;" style="text;html=1;strokeColor=none;fillColor=none;align=center;verticalAlign=middle;whiteSpace=wrap;rounded=0;" parent="1" vertex="1">
          <mxGeometry x="660" y="150" width="100" height="40" as="geometry" />
        </mxCell>
        <mxCell id="CXjppGzp4tX1Kewn0kRi-14" value="" style="rounded=1;whiteSpace=wrap;html=1;fillColor=#FFFF99;" parent="1" vertex="1">
          <mxGeometry x="170" y="10" width="120" height="60" as="geometry" />
        </mxCell>
        <mxCell id="CXjppGzp4tX1Kewn0kRi-15" value="&lt;font style=&quot;font-size: 18px;&quot;&gt;LED 0-2&lt;br&gt;&lt;/font&gt;" style="text;html=1;strokeColor=none;fillColor=none;align=center;verticalAlign=middle;whiteSpace=wrap;rounded=0;" parent="1" vertex="1">
          <mxGeometry x="180" y="20" width="100" height="40" as="geometry" />
        </mxCell>
        <mxCell id="CXjppGzp4tX1Kewn0kRi-17" value="" style="rounded=1;whiteSpace=wrap;html=1;fillColor=#CCFFE6;" parent="1" vertex="1">
          <mxGeometry x="650" y="10" width="120" height="60" as="geometry" />
        </mxCell>
        <mxCell id="CXjppGzp4tX1Kewn0kRi-18" value="&lt;font style=&quot;font-size: 18px;&quot;&gt;LED 3-5&lt;br&gt;&lt;/font&gt;" style="text;html=1;strokeColor=none;fillColor=none;align=center;verticalAlign=middle;whiteSpace=wrap;rounded=0;" parent="1" vertex="1">
          <mxGeometry x="660" y="20" width="100" height="40" as="geometry" />
        </mxCell>
        <mxCell id="CXjppGzp4tX1Kewn0kRi-19" value="" style="rounded=1;whiteSpace=wrap;html=1;" parent="1" vertex="1">
          <mxGeometry x="489" y="470" width="120" height="60" as="geometry" />
        </mxCell>
        <mxCell id="CXjppGzp4tX1Kewn0kRi-20" value="&lt;font style=&quot;font-size: 18px;&quot;&gt;Switches&lt;br&gt;&lt;/font&gt;" style="text;html=1;strokeColor=none;fillColor=none;align=center;verticalAlign=middle;whiteSpace=wrap;rounded=0;" parent="1" vertex="1">
          <mxGeometry x="499" y="480" width="100" height="40" as="geometry" />
        </mxCell>
        <mxCell id="CXjppGzp4tX1Kewn0kRi-21" value="" style="rounded=1;whiteSpace=wrap;html=1;" parent="1" vertex="1">
          <mxGeometry x="836" y="150" width="120" height="180" as="geometry" />
        </mxCell>
        <mxCell id="CXjppGzp4tX1Kewn0kRi-22" value="&lt;font style=&quot;font-size: 18px;&quot;&gt;SDRAM&lt;br&gt;controller&lt;br&gt;&lt;/font&gt;" style="text;html=1;strokeColor=none;fillColor=none;align=center;verticalAlign=middle;whiteSpace=wrap;rounded=0;" parent="1" vertex="1">
          <mxGeometry x="846" y="220" width="100" height="40" as="geometry" />
        </mxCell>
        <mxCell id="CXjppGzp4tX1Kewn0kRi-24" value="" style="rounded=1;whiteSpace=wrap;html=1;" parent="1" vertex="1">
          <mxGeometry x="996" y="150" width="120" height="180" as="geometry" />
        </mxCell>
        <mxCell id="CXjppGzp4tX1Kewn0kRi-25" value="&lt;font style=&quot;font-size: 18px;&quot;&gt;SDRAM&lt;br&gt;&lt;/font&gt;" style="text;html=1;strokeColor=none;fillColor=none;align=center;verticalAlign=middle;whiteSpace=wrap;rounded=0;" parent="1" vertex="1">
          <mxGeometry x="1006" y="205" width="100" height="70" as="geometry" />
        </mxCell>
        <mxCell id="CXjppGzp4tX1Kewn0kRi-29" value="" style="rounded=1;whiteSpace=wrap;html=1;" parent="1" vertex="1">
          <mxGeometry x="489" y="370" width="120" height="60" as="geometry" />
        </mxCell>
        <mxCell id="CXjppGzp4tX1Kewn0kRi-30" value="&lt;font style=&quot;font-size: 18px;&quot;&gt;Parallel port&lt;br&gt;&lt;/font&gt;" style="text;html=1;strokeColor=none;fillColor=none;align=center;verticalAlign=middle;whiteSpace=wrap;rounded=0;" parent="1" vertex="1">
          <mxGeometry x="499" y="380" width="100" height="40" as="geometry" />
        </mxCell>
        <mxCell id="CXjppGzp4tX1Kewn0kRi-33" value="" style="rounded=1;whiteSpace=wrap;html=1;" parent="1" vertex="1">
          <mxGeometry x="429.5" y="190" width="80" height="40" as="geometry" />
        </mxCell>
        <mxCell id="CXjppGzp4tX1Kewn0kRi-34" value="&lt;font style=&quot;font-size: 18px;&quot;&gt;Mailbox&lt;br&gt;&lt;/font&gt;" style="text;html=1;strokeColor=none;fillColor=none;align=center;verticalAlign=middle;whiteSpace=wrap;rounded=0;" parent="1" vertex="1">
          <mxGeometry x="440" y="190" width="59.5" height="40" as="geometry" />
        </mxCell>
        <mxCell id="CXjppGzp4tX1Kewn0kRi-39" value="" style="rounded=1;whiteSpace=wrap;html=1;" parent="1" vertex="1">
          <mxGeometry x="650" y="370" width="120" height="60" as="geometry" />
        </mxCell>
        <mxCell id="CXjppGzp4tX1Kewn0kRi-40" value="&lt;font style=&quot;font-size: 18px;&quot;&gt;Parallel port&lt;br&gt;&lt;/font&gt;" style="text;html=1;strokeColor=none;fillColor=none;align=center;verticalAlign=middle;whiteSpace=wrap;rounded=0;" parent="1" vertex="1">
          <mxGeometry x="660" y="380" width="100" height="40" as="geometry" />
        </mxCell>
        <mxCell id="CXjppGzp4tX1Kewn0kRi-43" value="" style="rounded=1;whiteSpace=wrap;html=1;" parent="1" vertex="1">
          <mxGeometry x="650" y="470" width="120" height="60" as="geometry" />
        </mxCell>
        <mxCell id="CXjppGzp4tX1Kewn0kRi-44" value="&lt;font style=&quot;font-size: 18px;&quot;&gt;LED 6-9&lt;br&gt;&lt;/font&gt;" style="text;html=1;strokeColor=none;fillColor=none;align=center;verticalAlign=middle;whiteSpace=wrap;rounded=0;" parent="1" vertex="1">
          <mxGeometry x="660" y="480" width="100" height="40" as="geometry" />
        </mxCell>
        <mxCell id="CXjppGzp4tX1Kewn0kRi-45" value="" style="endArrow=classic;startArrow=classic;html=1;rounded=0;fillColor=#fa6800;strokeColor=#C73500;entryX=0.5;entryY=0;entryDx=0;entryDy=0;" parent="1" target="CXjppGzp4tX1Kewn0kRi-29" edge="1">
          <mxGeometry width="50" height="50" relative="1" as="geometry">
            <mxPoint x="549" y="330" as="sourcePoint" />
            <mxPoint x="279" y="640" as="targetPoint" />
          </mxGeometry>
        </mxCell>
        <mxCell id="CXjppGzp4tX1Kewn0kRi-46" value="" style="endArrow=classic;html=1;rounded=0;entryX=0.5;entryY=1;entryDx=0;entryDy=0;exitX=0.5;exitY=0;exitDx=0;exitDy=0;" parent="1" source="CXjppGzp4tX1Kewn0kRi-43" target="CXjppGzp4tX1Kewn0kRi-39" edge="1">
          <mxGeometry width="50" height="50" relative="1" as="geometry">
            <mxPoint x="429" y="600" as="sourcePoint" />
            <mxPoint x="519" y="680" as="targetPoint" />
          </mxGeometry>
        </mxCell>
        <mxCell id="CXjppGzp4tX1Kewn0kRi-48" value="" style="endArrow=classic;startArrow=classic;html=1;rounded=0;fillColor=#fa6800;strokeColor=#C73500;" parent="1" edge="1">
          <mxGeometry width="50" height="50" relative="1" as="geometry">
            <mxPoint x="709" y="330" as="sourcePoint" />
            <mxPoint x="709" y="370" as="targetPoint" />
          </mxGeometry>
        </mxCell>
        <mxCell id="CXjppGzp4tX1Kewn0kRi-49" value="" style="endArrow=classic;html=1;rounded=0;entryX=0.5;entryY=1;entryDx=0;entryDy=0;exitX=0.5;exitY=0;exitDx=0;exitDy=0;" parent="1" target="CXjppGzp4tX1Kewn0kRi-14" edge="1">
          <mxGeometry width="50" height="50" relative="1" as="geometry">
            <mxPoint x="230" y="110" as="sourcePoint" />
            <mxPoint x="520" y="210" as="targetPoint" />
          </mxGeometry>
        </mxCell>
        <mxCell id="CXjppGzp4tX1Kewn0kRi-50" value="" style="endArrow=classic;html=1;rounded=0;entryX=0.5;entryY=1;entryDx=0;entryDy=0;exitX=0.5;exitY=0;exitDx=0;exitDy=0;" parent="1" target="CXjppGzp4tX1Kewn0kRi-17" edge="1">
          <mxGeometry width="50" height="50" relative="1" as="geometry">
            <mxPoint x="710" y="110" as="sourcePoint" />
            <mxPoint x="440" y="210" as="targetPoint" />
          </mxGeometry>
        </mxCell>
        <mxCell id="CXjppGzp4tX1Kewn0kRi-51" value="" style="endArrow=classic;startArrow=classic;html=1;rounded=0;fillColor=#0050ef;strokeColor=#001DBC;entryX=0.5;entryY=1;entryDx=0;entryDy=0;" parent="1" target="CXjppGzp4tX1Kewn0kRi-1" edge="1">
          <mxGeometry width="50" height="50" relative="1" as="geometry">
            <mxPoint x="230" y="270" as="sourcePoint" />
            <mxPoint x="660" y="570" as="targetPoint" />
          </mxGeometry>
        </mxCell>
        <mxCell id="CXjppGzp4tX1Kewn0kRi-52" value="" style="endArrow=classic;startArrow=classic;html=1;rounded=0;fillColor=#0050ef;strokeColor=#001DBC;exitX=0.5;exitY=1;exitDx=0;exitDy=0;" parent="1" source="CXjppGzp4tX1Kewn0kRi-7" edge="1">
          <mxGeometry width="50" height="50" relative="1" as="geometry">
            <mxPoint x="640" y="580" as="sourcePoint" />
            <mxPoint x="710" y="270" as="targetPoint" />
          </mxGeometry>
        </mxCell>
        <mxCell id="CXjppGzp4tX1Kewn0kRi-53" value="" style="endArrow=classic;startArrow=classic;html=1;rounded=0;fillColor=#fa6800;strokeColor=#C73500;entryX=1;entryY=0.5;entryDx=0;entryDy=0;exitX=-0.003;exitY=0.836;exitDx=0;exitDy=0;exitPerimeter=0;" parent="1" source="CXjppGzp4tX1Kewn0kRi-21" target="2fdZFBAq9TxM26RNQhWu-7" edge="1">
          <mxGeometry width="50" height="50" relative="1" as="geometry">
            <mxPoint x="960" y="230" as="sourcePoint" />
            <mxPoint x="940" y="290" as="targetPoint" />
          </mxGeometry>
        </mxCell>
        <mxCell id="CXjppGzp4tX1Kewn0kRi-54" value="" style="endArrow=classic;startArrow=classic;html=1;rounded=0;entryX=0;entryY=0.5;entryDx=0;entryDy=0;exitX=1;exitY=0.5;exitDx=0;exitDy=0;" parent="1" source="CXjppGzp4tX1Kewn0kRi-21" target="CXjppGzp4tX1Kewn0kRi-24" edge="1">
          <mxGeometry width="50" height="50" relative="1" as="geometry">
            <mxPoint x="1046" y="220" as="sourcePoint" />
            <mxPoint x="896" y="230" as="targetPoint" />
          </mxGeometry>
        </mxCell>
        <mxCell id="CXjppGzp4tX1Kewn0kRi-55" value="" style="rounded=1;whiteSpace=wrap;html=1;" parent="1" vertex="1">
          <mxGeometry x="330" y="370" width="120" height="60" as="geometry" />
        </mxCell>
        <mxCell id="CXjppGzp4tX1Kewn0kRi-56" value="&lt;font style=&quot;font-size: 18px;&quot;&gt;PLL&lt;br&gt;&lt;/font&gt;" style="text;html=1;strokeColor=none;fillColor=none;align=center;verticalAlign=middle;whiteSpace=wrap;rounded=0;" parent="1" vertex="1">
          <mxGeometry x="340" y="380" width="100" height="40" as="geometry" />
        </mxCell>
        <mxCell id="CXjppGzp4tX1Kewn0kRi-57" value="" style="endArrow=classic;startArrow=classic;html=1;rounded=0;exitX=0.5;exitY=0;exitDx=0;exitDy=0;fillColor=#fa6800;strokeColor=#C73500;" parent="1" source="CXjppGzp4tX1Kewn0kRi-55" edge="1">
          <mxGeometry width="50" height="50" relative="1" as="geometry">
            <mxPoint x="490" y="440" as="sourcePoint" />
            <mxPoint x="390" y="330" as="targetPoint" />
          </mxGeometry>
        </mxCell>
        <mxCell id="CXjppGzp4tX1Kewn0kRi-65" value="" style="rounded=1;whiteSpace=wrap;html=1;" parent="1" vertex="1">
          <mxGeometry x="170" y="370" width="120" height="60" as="geometry" />
        </mxCell>
        <mxCell id="CXjppGzp4tX1Kewn0kRi-66" value="&lt;font style=&quot;font-size: 18px;&quot;&gt;Clock&lt;br&gt;&lt;/font&gt;" style="text;html=1;strokeColor=none;fillColor=none;align=center;verticalAlign=middle;whiteSpace=wrap;rounded=0;" parent="1" vertex="1">
          <mxGeometry x="180" y="380" width="100" height="40" as="geometry" />
        </mxCell>
        <mxCell id="CXjppGzp4tX1Kewn0kRi-67" value="" style="endArrow=classic;startArrow=classic;html=1;rounded=0;exitX=0.5;exitY=0;exitDx=0;exitDy=0;fillColor=#fa6800;strokeColor=#C73500;" parent="1" source="CXjppGzp4tX1Kewn0kRi-65" edge="1">
          <mxGeometry width="50" height="50" relative="1" as="geometry">
            <mxPoint x="330" y="440" as="sourcePoint" />
            <mxPoint x="230" y="330" as="targetPoint" />
          </mxGeometry>
        </mxCell>
        <mxCell id="zXp3rRxYKXPtP4V35MGN-1" value="" style="endArrow=classic;startArrow=classic;html=1;rounded=0;fillColor=#0050ef;strokeColor=#001DBC;entryX=1;entryY=0.659;entryDx=0;entryDy=0;entryPerimeter=0;exitX=-0.006;exitY=0.223;exitDx=0;exitDy=0;exitPerimeter=0;" parent="1" source="CXjppGzp4tX1Kewn0kRi-21" target="CXjppGzp4tX1Kewn0kRi-7" edge="1">
          <mxGeometry width="50" height="50" relative="1" as="geometry">
            <mxPoint x="829" y="200" as="sourcePoint" />
            <mxPoint x="980" y="390" as="targetPoint" />
          </mxGeometry>
        </mxCell>
        <mxCell id="zXp3rRxYKXPtP4V35MGN-5" value="" style="rounded=1;whiteSpace=wrap;html=1;" parent="1" vertex="1">
          <mxGeometry x="430.5" y="110" width="80" height="40" as="geometry" />
        </mxCell>
        <mxCell id="zXp3rRxYKXPtP4V35MGN-6" value="&lt;font style=&quot;font-size: 18px;&quot;&gt;Mailbox&lt;br&gt;&lt;/font&gt;" style="text;html=1;strokeColor=none;fillColor=none;align=center;verticalAlign=middle;whiteSpace=wrap;rounded=0;" parent="1" vertex="1">
          <mxGeometry x="440.5" y="110" width="60" height="40" as="geometry" />
        </mxCell>
        <mxCell id="zXp3rRxYKXPtP4V35MGN-8" value="" style="endArrow=classic;html=1;rounded=0;exitX=1.014;exitY=0.162;exitDx=0;exitDy=0;exitPerimeter=0;entryX=0;entryY=0.5;entryDx=0;entryDy=0;" parent="1" source="CXjppGzp4tX1Kewn0kRi-1" target="zXp3rRxYKXPtP4V35MGN-5" edge="1">
          <mxGeometry width="50" height="50" relative="1" as="geometry">
            <mxPoint x="669" y="280" as="sourcePoint" />
            <mxPoint x="389" y="140" as="targetPoint" />
          </mxGeometry>
        </mxCell>
        <mxCell id="zXp3rRxYKXPtP4V35MGN-9" value="" style="endArrow=classic;html=1;rounded=0;exitX=1;exitY=0.5;exitDx=0;exitDy=0;entryX=-0.006;entryY=0.162;entryDx=0;entryDy=0;entryPerimeter=0;" parent="1" source="zXp3rRxYKXPtP4V35MGN-5" target="CXjppGzp4tX1Kewn0kRi-7" edge="1">
          <mxGeometry width="50" height="50" relative="1" as="geometry">
            <mxPoint x="669" y="150" as="sourcePoint" />
            <mxPoint x="719" y="100" as="targetPoint" />
          </mxGeometry>
        </mxCell>
        <mxCell id="zXp3rRxYKXPtP4V35MGN-10" value="" style="endArrow=classic;html=1;rounded=0;exitX=0.5;exitY=0;exitDx=0;exitDy=0;entryX=0.5;entryY=1;entryDx=0;entryDy=0;" parent="1" source="CXjppGzp4tX1Kewn0kRi-19" target="CXjppGzp4tX1Kewn0kRi-29" edge="1">
          <mxGeometry width="50" height="50" relative="1" as="geometry">
            <mxPoint x="529" y="490" as="sourcePoint" />
            <mxPoint x="579" y="440" as="targetPoint" />
          </mxGeometry>
        </mxCell>
        <mxCell id="zXp3rRxYKXPtP4V35MGN-11" value="" style="endArrow=classic;html=1;rounded=0;entryX=1;entryY=0.5;entryDx=0;entryDy=0;" parent="1" target="CXjppGzp4tX1Kewn0kRi-33" edge="1">
          <mxGeometry width="50" height="50" relative="1" as="geometry">
            <mxPoint x="649" y="210" as="sourcePoint" />
            <mxPoint x="569" y="200" as="targetPoint" />
          </mxGeometry>
        </mxCell>
        <mxCell id="zXp3rRxYKXPtP4V35MGN-12" value="" style="endArrow=classic;html=1;rounded=0;exitX=0;exitY=0.5;exitDx=0;exitDy=0;entryX=1.013;entryY=0.832;entryDx=0;entryDy=0;entryPerimeter=0;" parent="1" source="CXjppGzp4tX1Kewn0kRi-33" target="CXjppGzp4tX1Kewn0kRi-1" edge="1">
          <mxGeometry width="50" height="50" relative="1" as="geometry">
            <mxPoint x="609" y="240" as="sourcePoint" />
            <mxPoint x="319" y="230" as="targetPoint" />
          </mxGeometry>
        </mxCell>
        <mxCell id="ZBeEm8qRqmkYBdphGlBJ-1" value="" style="rounded=1;whiteSpace=wrap;html=1;" vertex="1" parent="1">
          <mxGeometry x="10" y="107.5" width="120" height="120" as="geometry" />
        </mxCell>
        <mxCell id="ZBeEm8qRqmkYBdphGlBJ-2" value="&lt;font style=&quot;font-size: 18px;&quot;&gt;Wolfson&lt;br&gt;CODEC&lt;br&gt;&lt;/font&gt;" style="text;html=1;strokeColor=none;fillColor=none;align=center;verticalAlign=middle;whiteSpace=wrap;rounded=0;" vertex="1" parent="1">
          <mxGeometry x="20" y="135" width="100" height="70" as="geometry" />
        </mxCell>
        <mxCell id="ZBeEm8qRqmkYBdphGlBJ-3" value="" style="endArrow=classic;startArrow=classic;html=1;rounded=0;entryX=1;entryY=0.5;entryDx=0;entryDy=0;exitX=-0.012;exitY=0.48;exitDx=0;exitDy=0;exitPerimeter=0;" edge="1" parent="1" source="CXjppGzp4tX1Kewn0kRi-1" target="ZBeEm8qRqmkYBdphGlBJ-1">
          <mxGeometry width="50" height="50" relative="1" as="geometry">
            <mxPoint x="520" y="360" as="sourcePoint" />
            <mxPoint x="570" y="310" as="targetPoint" />
          </mxGeometry>
        </mxCell>
      </root>
    </mxGraphModel>
  </diagram>
</mxfile>
